{
    "asset" : {
        "generator" : "Khronos glTF Blender I/O v3.2.43",
        "version" : "2.0"
    },
    "scene" : 0,
    "scenes" : [
        {
            "name" : "Scene",
            "nodes" : [
                0,
                1,
                2,
                3,
                4
            ]
        }
    ],
    "nodes" : [
        {
            "mesh" : 0,
            "name" : "slant_solid_long_A"
        },
        {
            "mesh" : 1,
            "name" : "slant_solid_long_B"
        },
        {
            "mesh" : 2,
            "name" : "slant_solid_long_C"
        },
        {
            "mesh" : 3,
            "name" : "slant_solid_long_D"
        },
        {
            "mesh" : 4,
            "name" : "bend_medium"
        }
    ],
    "meshes" : [
        {
            "name" : "slant_solid_long_A",
            "primitives" : [
                {
                    "attributes" : {
                        "POSITION" : 0,
                        "NORMAL" : 1
                    },
                    "indices" : 2
                }
            ]
        },
        {
            "name" : "slant_solid_long_B",
            "primitives" : [
                {
                    "attributes" : {
                        "POSITION" : 3,
                        "NORMAL" : 4
                    },
                    "indices" : 5
                }
            ]
        },
        {
            "name" : "slant_solid_long_C",
            "primitives" : [
                {
                    "attributes" : {
                        "POSITION" : 6,
                        "NORMAL" : 7
                    },
                    "indices" : 8
                }
            ]
        },
        {
            "name" : "slant_solid_long_D",
            "primitives" : [
                {
                    "attributes" : {
                        "POSITION" : 9,
                        "NORMAL" : 10
                    },
                    "indices" : 11
                }
            ]
        },
        {
            "name" : "bend_medium",
            "primitives" : [
                {
                    "attributes" : {
                        "POSITION" : 12,
                        "NORMAL" : 13
                    },
                    "indices" : 14
                }
            ]
        }
    ],
    "accessors" : [
        {
            "bufferView" : 0,
            "componentType" : 5126,
            "count" : 142,
            "max" : [
                0.5,
                0.75,
                1
            ],
            "min" : [
                -0.5,
                0,
                -1
            ],
            "type" : "VEC3"
        },
        {
            "bufferView" : 1,
            "componentType" : 5126,
            "count" : 142,
            "type" : "VEC3"
        },
        {
            "bufferView" : 2,
            "componentType" : 5123,
            "count" : 216,
            "type" : "SCALAR"
        },
        {
            "bufferView" : 3,
            "componentType" : 5126,
            "count" : 142,
            "max" : [
                0.5,
                1,
                1
            ],
            "min" : [
                -0.5,
                0,
                -1
            ],
            "type" : "VEC3"
        },
        {
            "bufferView" : 4,
            "componentType" : 5126,
            "count" : 142,
            "type" : "VEC3"
        },
        {
            "bufferView" : 5,
            "componentType" : 5123,
            "count" : 216,
            "type" : "SCALAR"
        },
        {
            "bufferView" : 6,
            "componentType" : 5126,
            "count" : 142,
            "max" : [
                0.5,
                1.5,
                1
            ],
            "min" : [
                -0.5,
                0,
                -1
            ],
            "type" : "VEC3"
        },
        {
            "bufferView" : 7,
            "componentType" : 5126,
            "count" : 142,
            "type" : "VEC3"
        },
        {
            "bufferView" : 8,
            "componentType" : 5123,
            "count" : 216,
            "type" : "SCALAR"
        },
        {
            "bufferView" : 9,
            "componentType" : 5126,
            "count" : 142,
            "max" : [
                0.5,
                2,
                1
            ],
            "min" : [
                -0.5,
                0,
                -1
            ],
            "type" : "VEC3"
        },
        {
            "bufferView" : 10,
            "componentType" : 5126,
            "count" : 142,
            "type" : "VEC3"
        },
        {
            "bufferView" : 11,
            "componentType" : 5123,
            "count" : 216,
            "type" : "SCALAR"
        },
        {
            "bufferView" : 12,
            "componentType" : 5126,
            "count" : 244,
            "max" : [
                1,
                0.5,
                2
            ],
            "min" : [
                -1,
                0,
                -2
            ],
            "type" : "VEC3"
        },
        {
            "bufferView" : 13,
            "componentType" : 5126,
            "count" : 244,
            "type" : "VEC3"
        },
        {
            "bufferView" : 14,
            "componentType" : 5123,
            "count" : 828,
            "type" : "SCALAR"
        }
    ],
    "bufferViews" : [
        {
            "buffer" : 0,
            "byteLength" : 1704,
            "byteOffset" : 0
        },
        {
            "buffer" : 0,
            "byteLength" : 1704,
            "byteOffset" : 1704
        },
        {
            "buffer" : 0,
            "byteLength" : 432,
            "byteOffset" : 3408
        },
        {
            "buffer" : 0,
            "byteLength" : 1704,
            "byteOffset" : 3840
        },
        {
            "buffer" : 0,
            "byteLength" : 1704,
            "byteOffset" : 5544
        },
        {
            "buffer" : 0,
            "byteLength" : 432,
            "byteOffset" : 7248
        },
        {
            "buffer" : 0,
            "byteLength" : 1704,
            "byteOffset" : 7680
        },
        {
            "buffer" : 0,
            "byteLength" : 1704,
            "byteOffset" : 9384
        },
        {
            "buffer" : 0,
            "byteLength" : 432,
            "byteOffset" : 11088
        },
        {
            "buffer" : 0,
            "byteLength" : 1704,
            "byteOffset" : 11520
        },
        {
            "buffer" : 0,
            "byteLength" : 1704,
            "byteOffset" : 13224
        },
        {
            "buffer" : 0,
            "byteLength" : 432,
            "byteOffset" : 14928
        },
        {
            "buffer" : 0,
            "byteLength" : 2928,
            "byteOffset" : 15360
        },
        {
            "buffer" : 0,
            "byteLength" : 2928,
            "byteOffset" : 18288
        },
        {
            "buffer" : 0,
            "byteLength" : 1656,
            "byteOffset" : 21216
        }
    ],
    "buffers" : [
        {
            "byteLength" : 22872,
            "uri" : "marble_kit.bin"
        }
    ]
}
